<svg xmlns="http://www.w3.org/2000/svg" width="800" height="500" viewBox="0 0 800 500" fill="none">
  <rect width="800" height="500" rx="12" fill="#1E293B" />
  
  <circle cx="400" cy="250" r="200" fill="url(#paint0_radial)" opacity="0.1" />
  
  <circle cx="400" cy="250" r="120" fill="#0F172A" />
  <circle cx="400" cy="250" r="118" stroke="url(#paint1_linear)" stroke-width="2" stroke-dasharray="6 6" />
  
  <circle cx="400" cy="250" r="60" fill="url(#paint2_linear)" opacity="0.8" />
  
  <circle cx="280" cy="250" r="40" fill="#0F172A" />
  <circle cx="280" cy="250" r="38" stroke="url(#paint3_linear)" stroke-width="2" />
  
  <circle cx="520" cy="250" r="40" fill="#0F172A" />
  <circle cx="520" cy="250" r="38" stroke="url(#paint4_linear)" stroke-width="2" />
  
  <circle cx="400" cy="130" r="40" fill="#0F172A" />
  <circle cx="400" cy="130" r="38" stroke="url(#paint5_linear)" stroke-width="2" />
  
  <circle cx="400" cy="370" r="40" fill="#0F172A" />
  <circle cx="400" cy="370" r="38" stroke="url(#paint6_linear)" stroke-width="2" />
  
  <line x1="330" y1="250" x2="470" y2="250" stroke="url(#paint7_linear)" stroke-width="2" />
  <line x1="400" y1="180" x2="400" y2="320" stroke="url(#paint8_linear)" stroke-width="2" />
  <line x1="330" y1="180" x2="470" y2="320" stroke="url(#paint9_linear)" stroke-width="2" />
  <line x1="330" y1="320" x2="470" y2="180" stroke="url(#paint10_linear)" stroke-width="2" />
  
  <defs>
    <radialGradient id="paint0_radial" cx="0" cy="0" r="1" gradientUnits="userSpaceOnUse" gradientTransform="translate(400 250) rotate(90) scale(200)">
      <stop stop-color="#6366F1" />
      <stop offset="1" stop-color="#6366F1" stop-opacity="0" />
    </radialGradient>
    
    <linearGradient id="paint1_linear" x1="280" y1="130" x2="520" y2="370" gradientUnits="userSpaceOnUse">
      <stop stop-color="#6366F1" />
      <stop offset="1" stop-color="#F43F5E" />
    </linearGradient>
    
    <linearGradient id="paint2_linear" x1="340" y1="190" x2="460" y2="310" gradientUnits="userSpaceOnUse">
      <stop stop-color="#6366F1" />
      <stop offset="1" stop-color="#F43F5E" />
    </linearGradient>
    
    <linearGradient id="paint3_linear" x1="240" y1="210" x2="320" y2="290" gradientUnits="userSpaceOnUse">
      <stop stop-color="#6366F1" />
      <stop offset="1" stop-color="#10B981" />
    </linearGradient>
    
    <linearGradient id="paint4_linear" x1="480" y1="210" x2="560" y2="290" gradientUnits="userSpaceOnUse">
      <stop stop-color="#F43F5E" />
      <stop offset="1" stop-color="#F59E0B" />
    </linearGradient>
    
    <linearGradient id="paint5_linear" x1="360" y1="90" x2="440" y2="170" gradientUnits="userSpaceOnUse">
      <stop stop-color="#10B981" />
      <stop offset="1" stop-color="#6366F1" />
    </linearGradient>
    
    <linearGradient id="paint6_linear" x1="360" y1="330" x2="440" y2="410" gradientUnits="userSpaceOnUse">
      <stop stop-color="#F59E0B" />
      <stop offset="1" stop-color="#F43F5E" />
    </linearGradient>
    
    <linearGradient id="paint7_linear" x1="330" y1="250" x2="470" y2="250" gradientUnits="userSpaceOnUse">
      <stop stop-color="#6366F1" />
      <stop offset="1" stop-color="#F43F5E" />
    </linearGradient>
    
    <linearGradient id="paint8_linear" x1="400" y1="180" x2="400" y2="320" gradientUnits="userSpaceOnUse">
      <stop stop-color="#10B981" />
      <stop offset="1" stop-color="#F59E0B" />
    </linearGradient>
    
    <linearGradient id="paint9_linear" x1="330" y1="180" x2="470" y2="320" gradientUnits="userSpaceOnUse">
      <stop stop-color="#10B981" />
      <stop offset="1" stop-color="#F43F5E" />
    </linearGradient>
    
    <linearGradient id="paint10_linear" x1="330" y1="320" x2="470" y2="180" gradientUnits="userSpaceOnUse">
      <stop stop-color="#F59E0B" />
      <stop offset="1" stop-color="#6366F1" />
    </linearGradient>
  </defs>
</svg>
