<svg xmlns="http://www.w3.org/2000/svg" width="800" height="500" viewBox="0 0 800 500" fill="none">
  <rect width="800" height="500" rx="12" fill="#1E293B" />
  <rect x="20" y="20" width="200" height="460" rx="8" fill="#0F172A" />
  
  <rect x="40" y="40" width="160" height="40" rx="4" fill="#334155" />
  <rect x="40" y="100" width="160" height="60" rx="8" fill="#334155" opacity="0.3" />
  <rect x="40" y="170" width="160" height="60" rx="8" fill="#6366F1" opacity="0.2" />
  <rect x="40" y="240" width="160" height="60" rx="8" fill="#334155" opacity="0.3" />
  <rect x="40" y="310" width="160" height="60" rx="8" fill="#334155" opacity="0.3" />
  <rect x="40" y="380" width="160" height="60" rx="8" fill="#334155" opacity="0.3" />
  
  <rect x="240" y="20" width="540" height="60" rx="8" fill="#0F172A" />
  <rect x="260" y="35" width="300" height="30" rx="4" fill="#334155" />
  <rect x="660" y="35" width="100" height="30" rx="15" fill="#6366F1" />
  
  <rect x="240" y="100" width="540" height="380" rx="8" fill="#0F172A" />
  
  <rect x="260" y="120" width="200" height="30" rx="4" fill="#334155" />
  
  <rect x="260" y="170" width="500" height="1" fill="#334155" opacity="0.5" />
  
  <rect x="280" y="190" width="220" height="120" rx="8" fill="#334155" opacity="0.2" />
  <rect x="300" y="210" width="180" height="20" rx="4" fill="#334155" />
  <rect x="300" y="240" width="120" height="15" rx="4" fill="#334155" opacity="0.7" />
  <rect x="300" y="265" width="180" height="25" rx="4" fill="#6366F1" opacity="0.8" />
  
  <rect x="520" y="190" width="220" height="120" rx="8" fill="#334155" opacity="0.2" />
  <rect x="540" y="210" width="180" height="20" rx="4" fill="#334155" />
  <rect x="540" y="240" width="120" height="15" rx="4" fill="#334155" opacity="0.7" />
  <rect x="540" y="265" width="180" height="25" rx="4" fill="#F43F5E" opacity="0.8" />
  
  <rect x="280" y="330" width="220" height="120" rx="8" fill="#334155" opacity="0.2" />
  <rect x="300" y="350" width="180" height="20" rx="4" fill="#334155" />
  <rect x="300" y="380" width="120" height="15" rx="4" fill="#334155" opacity="0.7" />
  <rect x="300" y="405" width="180" height="25" rx="4" fill="#10B981" opacity="0.8" />
  
  <rect x="520" y="330" width="220" height="120" rx="8" fill="#334155" opacity="0.2" />
  <rect x="540" y="350" width="180" height="20" rx="4" fill="#334155" />
  <rect x="540" y="380" width="120" height="15" rx="4" fill="#334155" opacity="0.7" />
  <rect x="540" y="405" width="180" height="25" rx="4" fill="#F59E0B" opacity="0.8" />
</svg>
