<svg xmlns="http://www.w3.org/2000/svg" width="1000" height="600" viewBox="0 0 1000 600" fill="none">
  <rect width="1000" height="600" rx="12" fill="#1E293B" />
  <rect x="20" y="20" width="200" height="560" rx="8" fill="#0F172A" />
  <rect x="40" y="40" width="160" height="40" rx="4" fill="#334155" />
  <rect x="40" y="100" width="160" height="30" rx="4" fill="#334155" opacity="0.7" />
  <rect x="40" y="140" width="160" height="30" rx="4" fill="#334155" opacity="0.7" />
  <rect x="40" y="180" width="160" height="30" rx="4" fill="#334155" opacity="0.7" />
  <rect x="40" y="220" width="160" height="30" rx="4" fill="#334155" opacity="0.7" />
  
  <rect x="240" y="20" width="740" height="60" rx="8" fill="#0F172A" />
  <rect x="260" y="35" width="300" height="30" rx="4" fill="#334155" />
  <rect x="860" y="35" width="100" height="30" rx="15" fill="#6366F1" />
  
  <rect x="240" y="100" width="360" height="220" rx="8" fill="#0F172A" />
  <circle cx="420" cy="210" r="80" fill="url(#paint0_linear)" opacity="0.8" />
  <circle cx="420" cy="210" r="60" fill="#0F172A" />
  <rect x="380" y="205" width="80" height="10" rx="5" fill="#6366F1" />
  
  <rect x="620" y="100" width="360" height="220" rx="8" fill="#0F172A" />
  <rect x="640" y="120" width="320" height="20" rx="4" fill="#334155" opacity="0.7" />
  <rect x="640" y="150" width="320" height="10" rx="4" fill="#334155" opacity="0.5" />
  <rect x="640" y="170" width="320" height="10" rx="4" fill="#334155" opacity="0.5" />
  <rect x="640" y="190" width="320" height="10" rx="4" fill="#334155" opacity="0.5" />
  <rect x="640" y="210" width="200" height="10" rx="4" fill="#334155" opacity="0.5" />
  <rect x="640" y="240" width="100" height="30" rx="4" fill="#6366F1" />
  
  <rect x="240" y="340" width="740" height="240" rx="8" fill="#0F172A" />
  <rect x="260" y="360" width="200" height="30" rx="4" fill="#334155" />
  <rect x="260" y="410" width="700" height="1" fill="#334155" opacity="0.5" />
  
  <rect x="280" y="430" width="200" height="20" rx="4" fill="#334155" opacity="0.7" />
  <rect x="500" y="430" width="100" height="20" rx="4" fill="#334155" opacity="0.7" />
  <rect x="620" y="430" width="100" height="20" rx="4" fill="#334155" opacity="0.7" />
  <rect x="740" y="430" width="100" height="20" rx="4" fill="#334155" opacity="0.7" />
  
  <rect x="260" y="470" width="700" height="1" fill="#334155" opacity="0.5" />
  
  <rect x="280" y="490" width="200" height="20" rx="4" fill="#334155" opacity="0.7" />
  <rect x="500" y="490" width="100" height="20" rx="4" fill="#334155" opacity="0.7" />
  <rect x="620" y="490" width="100" height="20" rx="4" fill="#334155" opacity="0.7" />
  <rect x="740" y="490" width="100" height="20" rx="4" fill="#334155" opacity="0.7" />
  
  <rect x="260" y="530" width="700" height="1" fill="#334155" opacity="0.5" />
  
  <defs>
    <linearGradient id="paint0_linear" x1="340" y1="130" x2="500" y2="290" gradientUnits="userSpaceOnUse">
      <stop stop-color="#6366F1" />
      <stop offset="1" stop-color="#F43F5E" />
    </linearGradient>
  </defs>
</svg>
