<svg xmlns="http://www.w3.org/2000/svg" width="800" height="500" viewBox="0 0 800 500" fill="none">
  <rect width="800" height="500" rx="12" fill="#1E293B" />
  <rect x="20" y="20" width="760" height="60" rx="8" fill="#0F172A" />
  <rect x="40" y="35" width="200" height="30" rx="4" fill="#334155" />
  <rect x="660" y="35" width="100" height="30" rx="15" fill="#6366F1" />
  
  <rect x="20" y="100" width="300" height="380" rx="8" fill="#0F172A" />
  <rect x="40" y="120" width="150" height="30" rx="4" fill="#334155" />
  
  <rect x="40" y="170" width="260" height="60" rx="8" fill="#6366F1" opacity="0.2" />
  <circle cx="70" cy="200" r="15" fill="#6366F1" />
  <rect x="95" y="190" width="120" height="15" rx="4" fill="#334155" />
  <rect x="95" y="210" width="80" height="10" rx="4" fill="#334155" opacity="0.7" />
  <rect x="240" y="190" width="40" height="20" rx="10" fill="#10B981" opacity="0.8" />
  
  <rect x="40" y="240" width="260" height="60" rx="8" fill="#334155" opacity="0.2" />
  <circle cx="70" cy="270" r="15" fill="#F43F5E" />
  <rect x="95" y="260" width="120" height="15" rx="4" fill="#334155" />
  <rect x="95" y="280" width="80" height="10" rx="4" fill="#334155" opacity="0.7" />
  <rect x="240" y="260" width="40" height="20" rx="10" fill="#F59E0B" opacity="0.8" />
  
  <rect x="40" y="310" width="260" height="60" rx="8" fill="#334155" opacity="0.2" />
  <circle cx="70" cy="340" r="15" fill="#10B981" />
  <rect x="95" y="330" width="120" height="15" rx="4" fill="#334155" />
  <rect x="95" y="350" width="80" height="10" rx="4" fill="#334155" opacity="0.7" />
  <rect x="240" y="330" width="40" height="20" rx="10" fill="#10B981" opacity="0.8" />
  
  <rect x="40" y="380" width="260" height="60" rx="8" fill="#334155" opacity="0.2" />
  <circle cx="70" cy="410" r="15" fill="#8B5CF6" />
  <rect x="95" y="400" width="120" height="15" rx="4" fill="#334155" />
  <rect x="95" y="420" width="80" height="10" rx="4" fill="#334155" opacity="0.7" />
  <rect x="240" y="400" width="40" height="20" rx="10" fill="#F59E0B" opacity="0.8" />
  
  <rect x="340" y="100" width="440" height="380" rx="8" fill="#0F172A" />
  <rect x="360" y="120" width="200" height="30" rx="4" fill="#334155" />
  
  <rect x="360" y="170" width="400" height="1" fill="#334155" opacity="0.5" />
  
  <rect x="380" y="190" width="170" height="120" rx="8" fill="#334155" opacity="0.2" />
  <rect x="400" y="210" width="130" height="20" rx="4" fill="#334155" />
  <circle cx="400" cy="250" r="15" fill="#6366F1" />
  <circle cx="430" cy="250" r="15" fill="#F43F5E" />
  <circle cx="460" cy="250" r="15" fill="#10B981" />
  <rect x="400" y="280" width="130" height="10" rx="4" fill="#334155" opacity="0.7" />
  
  <rect x="570" y="190" width="170" height="120" rx="8" fill="#334155" opacity="0.2" />
  <rect x="590" y="210" width="130" height="20" rx="4" fill="#334155" />
  <circle cx="590" cy="250" r="15" fill="#8B5CF6" />
  <circle cx="620" cy="250" r="15" fill="#F59E0B" />
  <rect x="590" y="280" width="130" height="10" rx="4" fill="#334155" opacity="0.7" />
  
  <rect x="380" y="330" width="360" height="120" rx="8" fill="#334155" opacity="0.2" />
  <rect x="400" y="350" width="200" height="20" rx="4" fill="#334155" />
  
  <rect x="400" y="390" width="320" height="40" rx="4" fill="#334155" opacity="0.3" />
  <rect x="420" y="405" width="280" height="10" rx="4" fill="#334155" opacity="0.7" />
  
  <circle cx="680" cy="350" r="15" fill="#6366F1" />
</svg>
