<svg xmlns="http://www.w3.org/2000/svg" width="800" height="500" viewBox="0 0 800 500" fill="none">
  <rect width="800" height="500" rx="12" fill="#1E293B" />
  <rect x="20" y="20" width="760" height="60" rx="8" fill="#0F172A" />
  <rect x="40" y="35" width="200" height="30" rx="4" fill="#334155" />
  <rect x="660" y="35" width="100" height="30" rx="15" fill="#6366F1" />
  
  <rect x="20" y="100" width="370" height="380" rx="8" fill="#0F172A" />
  <rect x="40" y="120" width="200" height="30" rx="4" fill="#334155" />
  
  <rect x="40" y="170" width="330" height="60" rx="8" fill="#334155" opacity="0.2" />
  <rect x="60" y="185" width="200" height="15" rx="4" fill="#334155" />
  <rect x="60" y="205" width="100" height="10" rx="4" fill="#334155" opacity="0.7" />
  <rect x="320" y="185" width="30" height="30" rx="15" fill="#F43F5E" opacity="0.8" />
  
  <rect x="40" y="240" width="330" height="60" rx="8" fill="#334155" opacity="0.2" />
  <rect x="60" y="255" width="200" height="15" rx="4" fill="#334155" />
  <rect x="60" y="275" width="100" height="10" rx="4" fill="#334155" opacity="0.7" />
  <rect x="320" y="255" width="30" height="30" rx="15" fill="#10B981" opacity="0.8" />
  
  <rect x="40" y="310" width="330" height="60" rx="8" fill="#334155" opacity="0.2" />
  <rect x="60" y="325" width="200" height="15" rx="4" fill="#334155" />
  <rect x="60" y="345" width="100" height="10" rx="4" fill="#334155" opacity="0.7" />
  <rect x="320" y="325" width="30" height="30" rx="15" fill="#F59E0B" opacity="0.8" />
  
  <rect x="40" y="380" width="330" height="60" rx="8" fill="#334155" opacity="0.2" />
  <rect x="60" y="395" width="200" height="15" rx="4" fill="#334155" />
  <rect x="60" y="415" width="100" height="10" rx="4" fill="#334155" opacity="0.7" />
  <rect x="320" y="395" width="30" height="30" rx="15" fill="#6366F1" opacity="0.8" />
  
  <rect x="410" y="100" width="370" height="180" rx="8" fill="#0F172A" />
  <rect x="430" y="120" width="200" height="30" rx="4" fill="#334155" />
  
  <path d="M450 220 L480 180 L510 200 L540 150 L570 190 L600 160 L630 170 L660 140 L690 180 L720 160" stroke="#6366F1" stroke-width="3" />
  <circle cx="480" cy="180" r="5" fill="#6366F1" />
  <circle cx="510" cy="200" r="5" fill="#6366F1" />
  <circle cx="540" cy="150" r="5" fill="#6366F1" />
  <circle cx="570" cy="190" r="5" fill="#6366F1" />
  <circle cx="600" cy="160" r="5" fill="#6366F1" />
  <circle cx="630" cy="170" r="5" fill="#6366F1" />
  <circle cx="660" cy="140" r="5" fill="#6366F1" />
  <circle cx="690" cy="180" r="5" fill="#6366F1" />
  <circle cx="720" cy="160" r="5" fill="#6366F1" />
  
  <rect x="410" y="300" width="370" height="180" rx="8" fill="#0F172A" />
  <rect x="430" y="320" width="200" height="30" rx="4" fill="#334155" />
  
  <circle cx="595" cy="390" r="60" fill="url(#paint0_linear)" opacity="0.2" />
  <circle cx="595" cy="390" r="45" fill="url(#paint1_linear)" opacity="0.4" />
  <circle cx="595" cy="390" r="30" fill="url(#paint2_linear)" opacity="0.6" />
  <circle cx="595" cy="390" r="15" fill="url(#paint3_linear)" opacity="0.8" />
  
  <defs>
    <linearGradient id="paint0_linear" x1="535" y1="330" x2="655" y2="450" gradientUnits="userSpaceOnUse">
      <stop stop-color="#6366F1" />
      <stop offset="1" stop-color="#F43F5E" />
    </linearGradient>
    <linearGradient id="paint1_linear" x1="550" y1="345" x2="640" y2="435" gradientUnits="userSpaceOnUse">
      <stop stop-color="#6366F1" />
      <stop offset="1" stop-color="#F43F5E" />
    </linearGradient>
    <linearGradient id="paint2_linear" x1="565" y1="360" x2="625" y2="420" gradientUnits="userSpaceOnUse">
      <stop stop-color="#6366F1" />
      <stop offset="1" stop-color="#F43F5E" />
    </linearGradient>
    <linearGradient id="paint3_linear" x1="580" y1="375" x2="610" y2="405" gradientUnits="userSpaceOnUse">
      <stop stop-color="#6366F1" />
      <stop offset="1" stop-color="#F43F5E" />
    </linearGradient>
  </defs>
</svg>
