<svg xmlns="http://www.w3.org/2000/svg" width="800" height="500" viewBox="0 0 800 500" fill="none">
  <rect width="800" height="500" rx="12" fill="#1E293B" />
  
  <rect x="50" y="50" width="700" height="400" rx="8" fill="#0F172A" />
  
  <rect x="80" y="80" width="300" height="50" rx="8" fill="#334155" opacity="0.7" />
  <rect x="80" y="150" width="640" height="1" fill="#334155" opacity="0.5" />
  
  <rect x="100" y="180" width="180" height="40" rx="20" fill="#6366F1" opacity="0.8" />
  <rect x="100" y="240" width="180" height="40" rx="20" fill="#10B981" opacity="0.8" />
  <rect x="100" y="300" width="180" height="40" rx="20" fill="#F43F5E" opacity="0.8" />
  <rect x="100" y="360" width="180" height="40" rx="20" fill="#F59E0B" opacity="0.8" />
  
  <rect x="310" y="180" width="380" height="40" rx="4" fill="#334155" opacity="0.3" />
  <rect x="330" y="195" width="340" height="10" rx="4" fill="#334155" opacity="0.7" />
  
  <rect x="310" y="240" width="380" height="40" rx="4" fill="#334155" opacity="0.3" />
  <rect x="330" y="255" width="340" height="10" rx="4" fill="#334155" opacity="0.7" />
  
  <rect x="310" y="300" width="380" height="40" rx="4" fill="#334155" opacity="0.3" />
  <rect x="330" y="315" width="340" height="10" rx="4" fill="#334155" opacity="0.7" />
  
  <rect x="310" y="360" width="380" height="40" rx="4" fill="#334155" opacity="0.3" />
  <rect x="330" y="375" width="340" height="10" rx="4" fill="#334155" opacity="0.7" />
  
  <circle cx="140" cy="200" r="15" fill="white" />
  <path d="M135 200 L138 204 L145 196" stroke="#0F172A" stroke-width="2" stroke-linecap="round" stroke-linejoin="round" />
  
  <circle cx="140" cy="260" r="15" fill="white" />
  <path d="M135 260 L138 264 L145 256" stroke="#0F172A" stroke-width="2" stroke-linecap="round" stroke-linejoin="round" />
  
  <circle cx="140" cy="320" r="15" fill="white" />
  <path d="M135 320 L138 324 L145 316" stroke="#0F172A" stroke-width="2" stroke-linecap="round" stroke-linejoin="round" />
  
  <circle cx="140" cy="380" r="15" fill="white" />
  <path d="M135 380 L138 384 L145 376" stroke="#0F172A" stroke-width="2" stroke-linecap="round" stroke-linejoin="round" />
</svg>
